<?xml version="1.0" encoding="UTF-8"?>
<svg width="62px" height="21px" viewBox="0 0 62 21" version="1.1" xmlns="http://www.w3.org/2000/svg" xmlns:xlink="http://www.w3.org/1999/xlink">
    <!-- Generator: Sketch 42 (36781) - http://www.bohemiancoding.com/sketch -->
    <title>logo</title>
    <desc>Created with Sketch.</desc>
    <defs></defs>
    <g id="Design-Components" stroke="none" stroke-width="1" fill="none" fill-rule="evenodd">
        <g id="Landing_Page" transform="translate(-125.000000, -15.000000)" fill="#313131">
            <g id="logo" transform="translate(125.000000, 15.000000)">
                <path d="M11.0038497,5.39413876 C11.0038497,6.45502392 11.8496637,7.29940191 12.9123531,7.29940191 C14.3654182,7.29940191 15.1678571,5.97870813 15.1678571,4.5930622 C15.1678571,2.62284689 13.5196042,0.068062201 9.89778525,0.068062201 C6.4494666,0.068062201 4.60602582,2.384689 4.60602582,4.93947368 C4.60602582,7.29940191 6.1675286,8.81495215 7.85915662,10.5686603 C9.22547155,11.9543062 10.049598,13.2533493 10.049598,14.6389952 C10.049598,16.3061005 8.79172078,18.1680622 6.42777907,18.1680622 C4.47590059,18.1680622 3.10958565,16.8473684 3.10958565,15.4400718 C3.10958565,14.422488 3.84696197,13.7946172 4.62771336,13.7946172 C5.14821429,13.7946172 5.66871521,14.0544258 6.12415353,14.7688995 L7.90253169,12.6254785 C6.94827999,11.2614833 5.62534014,10.6552632 4.34577536,10.6552632 C2.19870903,10.6552632 0.138392857,12.3873206 0.138392857,15.1802632 C0.138392857,18.3629187 2.76258503,20.7661483 6.4494666,20.7661483 C10.4182862,20.7661483 13.4328541,17.951555 13.4328541,14.4874402 C13.4328541,12.127512 12.0014765,10.0490431 10.2881609,8.20873206 C9.26884663,7.10454545 7.81578154,5.84880383 7.81578154,4.39820574 C7.81578154,3.40227273 8.53147032,2.29808612 10.049598,2.29808612 C11.17735,2.29808612 12.0014765,2.92595694 12.1532893,3.64043062 C11.459288,3.94354067 11.0038497,4.61471292 11.0038497,5.39413876 L11.0038497,5.39413876 Z" id="Path"></path>
                <path d="M13.0089285,18.7894737 L15.4335714,18.7894737 L17.0776785,13.4344737 C17.4596428,12.8210526 18.0076785,12.2076316 18.7051785,12.2076316 C19.56875,12.2076316 19.5853571,13.1194737 19.33625,13.8986842 L17.8416071,18.7894737 L20.26625,18.7894737 L21.89375,13.4510526 C22.2757143,12.8210526 22.8403571,12.2076316 23.5378571,12.2076316 C24.4180357,12.2076316 24.4014285,13.1194737 24.1523214,13.8986842 L23.6208928,15.6228947 C23.1891071,17.0321053 23.2389285,18.9386842 25.1819643,18.9386842 C27.0751785,18.9386842 28.6196428,17.0818421 29.7655357,14.5784211 C29.5994643,14.3794737 29.1344643,14.1307895 28.8189285,14.1142105 C27.9055357,15.9710526 26.9423214,17.2476316 26.1783928,17.2476316 C25.6801785,17.2476316 25.7133928,16.7171053 25.8960714,16.1534211 L26.6932143,13.5173684 C27.2744643,11.6439474 26.5271428,10.185 24.7003571,10.185 C23.6042857,10.185 22.7241071,10.7652632 22.0432143,11.5610526 C21.8439285,10.7486842 21.2460714,10.185 20.1998214,10.185 C19.1369643,10.185 18.29,10.7818421 17.6921428,11.4118421 L18.0242857,10.3342105 L15.5996428,10.3342105 L13.0089285,18.7894737 Z" id="Path"></path>
                <path d="M29.2119642,10.3342105 L27.6508928,15.4073684 C27.0696428,17.3305263 27.55125,18.9386842 29.4942857,18.9386842 C31.50375,18.9386842 32.9651785,17.1481579 34.1442857,14.5784211 C33.9782142,14.3794737 33.5132142,14.1307895 33.1976785,14.1142105 C32.2676785,16.0042105 31.3708928,17.2476316 30.4408928,17.2476316 C29.7932142,17.2476316 29.6935714,16.6839474 29.9094642,15.9710526 L31.6366071,10.3342105 L29.2119642,10.3342105 Z" id="Path"></path>
                <path d="M29.7267857,7.96342105 C29.7267857,8.75921053 30.34125,9.37263158 31.1383928,9.37263158 C31.9521428,9.37263158 32.5666071,8.75921053 32.5666071,7.96342105 C32.5666071,7.16763158 31.9521428,6.52105263 31.1383928,6.52105263 C30.34125,6.52105263 29.7267857,7.16763158 29.7267857,7.96342105 L29.7267857,7.96342105 Z" id="Path"></path>
                <path d="M32.0296428,12.1578947 L32.5776785,10.3342105 L33.5907142,10.3342105 L34.2383928,8.21210526 L36.8955356,7.48263158 L36.0153571,10.3342105 L39.4198214,10.3342105 L40.0841071,8.21210526 L42.7246428,7.48263158 L41.8444642,10.3342105 L44.0532142,10.3342105 L43.4885714,12.1578947 L41.2964285,12.1578947 L40.2501785,15.5731579 C39.9014285,16.7171053 40.2335714,17.2476316 40.9476785,17.2476316 C42.0935714,17.2476316 43.3557142,15.7057895 44.1362499,14.1142105 C44.4517856,14.1307895 44.9167856,14.3794737 45.0828571,14.5784211 C43.9701785,17.0155263 42.4091071,18.9386842 40.1505356,18.9386842 C38.6226785,18.9386842 37.9417856,18.1428947 37.7923214,17.0321053 C36.8623214,18.1926316 35.7164285,18.9386842 34.3048214,18.9386842 C31.9133928,18.9386842 31.5812499,16.9160526 32.1957142,14.9265789 L33.0260714,12.1578947 L32.0296428,12.1578947 Z M35.1185714,17.2476316 C36.2312499,17.2476316 37.4767856,15.7886842 38.2407142,14.2136842 L38.8717856,12.1578947 L35.4507142,12.1578947 L34.4044642,15.5731579 C34.0723214,16.7171053 34.4044642,17.2476316 35.1185714,17.2476316 Z" id="Combined-Shape"></path>
                <path d="M51.9360713,14.1142105 C52.251607,14.1307895 52.716607,14.3794737 52.8826785,14.5784211 C51.7367856,17.0818421 49.8435713,18.9884211 46.9871428,18.9884211 C44.5292856,18.9884211 42.9682142,17.5957895 42.9682142,15.3078947 C42.9682142,12.8044737 44.8614285,10.185 47.717857,10.185 C49.5612499,10.185 50.7071428,11.2792105 50.7071428,12.5557895 C50.7071428,13.9981579 49.2955356,15.8384211 45.6087499,15.7389474 C45.8246428,16.7336842 46.5885713,17.3139474 47.7510713,17.3139474 C49.345357,17.3139474 50.9230356,16.17 51.9360713,14.1142105 Z M47.6846428,12.2407895 C46.6383928,12.2407895 45.7582142,13.3184211 45.5755356,14.6281579 C47.6182142,14.595 48.5149999,13.6997368 48.5149999,12.9702632 C48.5149999,12.5889474 48.2824999,12.2407895 47.6846428,12.2407895 Z" id="Combined-Shape"></path>
                <path d="M49.7383927,18.7894737 L52.1630356,18.7894737 L53.840357,13.2852632 C54.3219642,12.6884211 54.8699999,12.2076316 55.5342856,12.2076316 C56.3812499,12.2076316 56.4808927,12.9371053 56.2151785,13.7826316 L55.6339285,15.6228947 C55.2021427,17.0321053 55.2519642,18.9386842 57.1949999,18.9386842 C59.0882142,18.9386842 60.6326785,17.0818421 61.7785713,14.5784211 C61.6124999,14.3794737 61.1474999,14.1307895 60.8319642,14.1142105 C59.9185713,15.9710526 58.955357,17.2476316 58.2080356,17.2476316 C57.7098213,17.2476316 57.7264285,16.7171053 57.909107,16.1534211 L58.6564285,13.7163158 C59.2044642,11.9423684 58.6896427,10.185 56.7964285,10.185 C55.8996427,10.185 55.119107,10.6326316 54.421607,11.4118421 L54.7537499,10.3342105 L52.329107,10.3342105 L49.7383927,18.7894737 Z" id="Path"></path>
            </g>
        </g>
    </g>
</svg>