<?xml version="1.0" encoding="UTF-8"?>
<svg width="95px" height="55px" viewBox="0 0 95 55" version="1.1" xmlns="http://www.w3.org/2000/svg" xmlns:xlink="http://www.w3.org/1999/xlink">
    <!-- Generator: Sketch 42 (36781) - http://www.bohemiancoding.com/sketch -->
    <title>logo</title>
    <desc>Created with Sketch.</desc>
    <defs></defs>
    <g id="Design-Components" stroke="none" stroke-width="1" fill="none" fill-rule="evenodd">
        <g id="logo">
            <path d="M47,24 C40.935,24 36.00075,19.3740938 36.00075,13.6882031 C36.00075,8.00226563 40.935,3.37635938 47,3.37635938 C53.065,3.37635938 57.99925,8.00226563 57.99925,13.6882031 C57.99925,19.3741406 53.065,24 47,24 Z M47,6.74301563 C42.9151,6.74301563 39.59185,9.85860938 39.59185,13.6882031 C39.59185,17.5177969 42.91515,20.6333438 47,20.6333438 C51.08485,20.6333438 54.40815,17.51775 54.40815,13.6882031 C54.4082,9.85860938 51.0849,6.74301563 47,6.74301563 Z" id="Shape" fill="#313131"></path>
            <path d="M40.13415,5.63835938 L42.44175,8.21704688 C43.6996,7.2939375 45.28245,6.74301563 47,6.74301563 C48.71755,6.74301563 50.3004,7.2939375 51.55825,8.21704688 L53.86585,5.63835938 C51.98275,4.22385938 49.59515,3.37640625 47,3.37640625 C44.40485,3.37635938 42.01725,4.2238125 40.13415,5.63835938 Z" id="Shape" fill="#000000" opacity="0.1"></path>
            <polygon id="Shape" fill="#636363" points="45.3075 0 43.59455 3.47760938 50.40545 3.47760938 48.6925 0"></polygon>
            <polygon id="Shape" fill="#313131" points="48.6925 0 48.6925 0 50.40545 3.47760938 50.40545 3.47760938 53.8464 3.47760938 51.63655 0"></polygon>
            <polygon id="Shape" fill="#A4A4A4" points="45.3075 0 45.3075 0 42.36345 0 40.1536 3.47760938 43.59455 3.47760938 43.59455 3.47760938"></polygon>
            <polygon id="Shape" fill="#636363" points="50.40545 3.47760937 47 11.1282187 53.8464 3.47760937"></polygon>
            <polygon id="Shape" fill="#313131" points="43.59455 3.47760937 40.1536 3.47760937 47 11.1282187"></polygon>
            <polygon id="Shape" fill="#A4A4A4" points="43.59455 3.47760937 47 11.1283125 50.40545 3.47760937"></polygon>
            <g id="Group-3" transform="translate(0.000000, 23.000000)" fill="#313131">
                <path d="M16.8607375,8.21964001 C16.8607375,9.83622693 18.1567428,11.1228982 19.7850572,11.1228982 C22.0115279,11.1228982 23.2410714,9.11041239 23.2410714,6.99895193 C23.2410714,3.99671907 20.7155226,0.10371383 15.1659613,0.10371383 C9.88224722,0.10371383 7.05762021,3.6338118 7.05762021,7.52681704 C7.05762021,11.1228982 9.45024544,13.432308 12.0422561,16.1046252 C14.1358032,18.2160857 15.3985776,20.1955799 15.3985776,22.3070403 C15.3985776,24.8473912 13.4711851,27.6846662 9.84901631,27.6846662 C6.85823477,27.6846662 4.76468769,25.6721805 4.76468769,23.5277284 C4.76468769,21.9771246 5.8945385,21.0203691 7.09085111,21.0203691 C7.88839286,21.0203691 8.6859346,21.4162679 9.38378363,22.5049897 L12.1087179,19.2388243 C10.6465581,17.1603554 8.61947279,16.2365915 6.65884934,16.2365915 C3.36898964,16.2365915 0.212053571,18.8759171 0.212053571,23.1318296 C0.212053571,27.9815903 4.2329932,31.6436546 9.88224722,31.6436546 C15.963503,31.6436546 20.5825989,27.3547505 20.5825989,22.0760993 C20.5825989,18.4800182 18.3893592,15.3128275 15.7641176,12.5085441 C14.202265,10.825974 11.9757943,8.91246298 11.9757943,6.7020278 C11.9757943,5.18441558 13.0724142,3.50184552 15.3985776,3.50184552 C17.1265847,3.50184552 18.3893592,4.45860105 18.6219755,5.54732285 C17.5585865,6.00920483 16.8607375,7.0319435 16.8607375,8.21964001 L16.8607375,8.21964001 Z" id="Path"></path>
                <path d="M19.9330357,28.6315789 L23.6482142,28.6315789 L26.1674107,20.4715789 C26.7526785,19.5368421 27.5924107,18.6021053 28.6611607,18.6021053 C29.984375,18.6021053 30.0098214,19.9915789 29.628125,21.1789474 L27.3379464,28.6315789 L31.053125,28.6315789 L33.546875,20.4968421 C34.1321428,19.5368421 34.9973214,18.6021053 36.0660714,18.6021053 C37.4147321,18.6021053 37.3892857,19.9915789 37.0075892,21.1789474 L36.1933035,23.8063158 C35.5316964,25.9536842 35.6080357,28.8589474 38.5852678,28.8589474 C41.4861607,28.8589474 43.8526785,26.0294737 45.6084821,22.2147368 C45.3540178,21.9115789 44.6415178,21.5326316 44.1580357,21.5073684 C42.7584821,24.3368421 41.2825892,26.2821053 40.1120535,26.2821053 C39.3486607,26.2821053 39.3995535,25.4736842 39.6794642,24.6147368 L40.9008928,20.5978947 C41.7915178,17.7431579 40.6464285,15.52 37.8473214,15.52 C36.1678571,15.52 34.8191964,16.4042105 33.7758928,17.6168421 C33.4705357,16.3789474 32.5544642,15.52 30.9513392,15.52 C29.3227678,15.52 28.025,16.4294737 27.1089285,17.3894737 L27.6178571,15.7473684 L23.9026785,15.7473684 L19.9330357,28.6315789 Z" id="Path"></path>
                <path d="M44.7602678,15.7473684 L42.3683035,23.4778947 C41.4776785,26.4084211 42.2156249,28.8589474 45.1928571,28.8589474 C48.2718749,28.8589474 50.5111606,26.1305263 52.3178571,22.2147368 C52.0633928,21.9115789 51.3508928,21.5326316 50.8674106,21.5073684 C49.4424106,24.3873684 48.0683035,26.2821053 46.6433035,26.2821053 C45.6508928,26.2821053 45.4982142,25.4231579 45.8290178,24.3368421 L48.4754464,15.7473684 L44.7602678,15.7473684 Z" id="Path"></path>
                <path d="M45.5491071,12.1347368 C45.5491071,13.3473684 46.4906249,14.2821053 47.7120535,14.2821053 C48.9589285,14.2821053 49.9004464,13.3473684 49.9004464,12.1347368 C49.9004464,10.9221053 48.9589285,9.93684211 47.7120535,9.93684211 C46.4906249,9.93684211 45.5491071,10.9221053 45.5491071,12.1347368 L45.5491071,12.1347368 Z" id="Path"></path>
                <path d="M49.0776785,18.5263158 L49.9174106,15.7473684 L51.4696427,15.7473684 L52.4620535,12.5136842 L56.533482,11.4021053 L55.1848213,15.7473684 L60.4013392,15.7473684 L61.4191963,12.5136842 L65.4651785,11.4021053 L64.1165177,15.7473684 L67.5008927,15.7473684 L66.6357142,18.5263158 L63.2767856,18.5263158 L61.6736606,23.7305263 C61.1392856,25.4736842 61.6482142,26.2821053 62.7424106,26.2821053 C64.4982142,26.2821053 66.4321427,23.9326316 67.6281249,21.5073684 C68.111607,21.5326316 68.824107,21.9115789 69.0785713,22.2147368 C67.3736606,25.9284211 64.9816963,28.8589474 61.520982,28.8589474 C59.1799106,28.8589474 58.136607,27.6463158 57.9075892,25.9536842 C56.4825892,27.7221053 54.7267856,28.8589474 52.5638392,28.8589474 C48.8995535,28.8589474 48.3906249,25.7768421 49.3321427,22.7452632 L50.6044642,18.5263158 L49.0776785,18.5263158 Z M53.8107142,26.2821053 C55.5156249,26.2821053 57.424107,24.0589474 58.5946427,21.6589474 L59.561607,18.5263158 L54.3196427,18.5263158 L52.7165177,23.7305263 C52.2075892,25.4736842 52.7165177,26.2821053 53.8107142,26.2821053 Z" id="Combined-Shape"></path>
                <path d="M79.5794641,21.5073684 C80.0629463,21.5326316 80.7754463,21.9115789 81.0299106,22.2147368 C79.274107,26.0294737 76.3732141,28.9347368 71.9964284,28.9347368 C68.230357,28.9347368 65.8383927,26.8126316 65.8383927,23.3263158 C65.8383927,19.5115789 68.7392856,15.52 73.1160713,15.52 C75.9406249,15.52 77.6964284,17.1873684 77.6964284,19.1326316 C77.6964284,21.3305263 75.533482,24.1347368 69.8843749,23.9831579 C70.2151784,25.4989474 71.3857141,26.3831579 73.1669641,26.3831579 C75.6098213,26.3831579 78.027232,24.64 79.5794641,21.5073684 Z M73.0651784,18.6526316 C71.4620534,18.6526316 70.1133927,20.2947368 69.833482,22.2905263 C72.9633927,22.24 74.3374999,20.8757895 74.3374999,19.7642105 C74.3374999,19.1831579 73.9812499,18.6526316 73.0651784,18.6526316 Z" id="Combined-Shape"></path>
                <path d="M76.2120534,28.6315789 L79.927232,28.6315789 L82.4973212,20.2442105 C83.2352677,19.3347368 84.0749998,18.6021053 85.092857,18.6021053 C86.3906248,18.6021053 86.5433034,19.7136842 86.1361605,21.0021053 L85.2455355,23.8063158 C84.5839284,25.9536842 84.6602677,28.8589474 87.6374998,28.8589474 C90.5383927,28.8589474 92.9049105,26.0294737 94.6607141,22.2147368 C94.4062498,21.9115789 93.6937498,21.5326316 93.2102677,21.5073684 C91.8107141,24.3368421 90.3348212,26.2821053 89.189732,26.2821053 C88.4263391,26.2821053 88.4517855,25.4736842 88.7316962,24.6147368 L89.8767855,20.9010526 C90.7165177,18.1978947 89.9276784,15.52 87.0267855,15.52 C85.6526784,15.52 84.4566962,16.2021053 83.3879462,17.3894737 L83.8968748,15.7473684 L80.1816962,15.7473684 L76.2120534,28.6315789 Z" id="Path"></path>
            </g>
        </g>
    </g>
</svg>